<?xml version="1.0" standalone="no"?>
<!DOCTYPE svg PUBLIC "-//W3C//DTD SVG 20010904//EN"
 "http://www.w3.org/TR/2001/REC-SVG-20010904/DTD/svg10.dtd">
<svg version="1.0" xmlns="http://www.w3.org/2000/svg"
 width="570.000000pt" height="764.000000pt" viewBox="0 0 570.000000 764.000000"
 preserveAspectRatio="xMidYMid meet">

<g transform="translate(0.000000,500.000000) scale(0.100000,-0.100000)"
fill="currentColor" stroke="none">
<path d="M1925 3539 c-145 -10 -320 -38 -342 -55 -17 -12 -18 -65 -21 -876 -1
-574 1 -880 8 -914 26 -126 149 -192 415 -225 141 -18 639 -18 735 -1 201 36
313 92 351 176 15 34 19 67 19 196 0 85 4 160 8 165 4 6 65 10 147 10 137 0
142 1 208 32 90 43 156 112 207 218 47 97 67 182 76 320 18 282 -76 523 -235
604 -93 48 -212 62 -325 39 -48 -9 -59 -9 -67 3 -5 8 -9 65 -9 126 0 106 -1
113 -22 127 -79 48 -781 82 -1153 55z m926 -34 c137 -16 183 -28 177 -48 -14
-42 -238 -62 -708 -62 -475 0 -695 21 -695 65 0 19 68 36 190 48 158 16 893
14 1036 -3z m560 -420 c64 -22 110 -64 148 -134 42 -80 61 -172 61 -306 0
-131 -18 -222 -60 -311 -60 -126 -134 -178 -251 -179 -99 0 -144 27 -186 112
l-28 58 1 285 c1 269 3 288 23 343 46 119 168 174 292 132z"/>
</g>
</svg>
