<?xml version="1.0" standalone="no"?>
<!DOCTYPE svg PUBLIC "-//W3C//DTD SVG 20010904//EN"
 "http://www.w3.org/TR/2001/REC-SVG-20010904/DTD/svg10.dtd">
<svg version="1.0" xmlns="http://www.w3.org/2000/svg"
 width="570.000000pt" height="764.000000pt" viewBox="0 0 570.000000 764.000000"
 preserveAspectRatio="xMidYMid meet">

<g transform="translate(0.000000,764.000000) scale(0.100000,-0.100000)"
fill="currentColor" stroke="none">
<path d="M2339 6840 c-953 -40 -1614 -216 -1740 -462 -36 -70 -18 -126 61
-189 56 -45 65 -55 105 -115 31 -48 35 -63 54 -208 13 -104 27 -171 40 -200
14 -27 21 -62 21 -99 0 -32 8 -79 19 -107 11 -28 17 -58 14 -68 -2 -11 1 -52
7 -93 6 -41 11 -103 10 -139 0 -36 7 -90 15 -120 9 -30 16 -84 15 -120 -1 -36
5 -86 14 -110 8 -25 14 -74 14 -110 0 -39 6 -81 16 -105 12 -29 15 -54 10 -91
-4 -34 0 -72 10 -113 9 -35 16 -87 16 -116 0 -30 6 -74 14 -97 8 -24 14 -72
14 -108 0 -36 5 -78 11 -93 6 -16 11 -57 11 -92 0 -36 7 -85 15 -110 10 -28
13 -58 9 -79 -3 -19 0 -59 6 -88 7 -29 14 -84 16 -123 1 -38 7 -83 13 -98 6
-16 11 -61 11 -100 0 -44 6 -83 15 -101 10 -19 13 -44 9 -80 -4 -36 0 -69 14
-113 11 -35 15 -60 9 -56 -13 8 -2 -73 19 -135 8 -26 11 -48 6 -50 -9 -3 0
-78 15 -127 6 -16 8 -47 5 -67 -2 -21 3 -58 11 -83 9 -25 13 -60 10 -78 -4
-29 5 -71 33 -141 6 -15 4 -17 -6 -11 -20 12 -5 -79 21 -129 15 -30 17 -36 5
-27 -14 12 -16 9 -16 -20 0 -19 11 -58 25 -88 17 -36 20 -50 10 -41 -26 22
-27 5 -3 -68 16 -48 20 -68 11 -65 -17 6 -8 -45 17 -104 16 -36 16 -41 3 -36
-13 5 -14 0 -8 -28 4 -19 16 -51 27 -72 19 -38 19 -38 0 -28 -18 10 -19 8 -12
-22 7 -29 20 -62 56 -142 8 -16 22 -41 31 -55 10 -13 13 -21 7 -17 -17 10 -38
-65 -29 -109 21 -114 95 -190 270 -274 285 -139 629 -211 1070 -226 500 -17
995 70 1299 230 161 84 228 184 225 335 -1 66 3 85 30 143 23 46 35 91 41 150
5 45 14 112 20 148 6 36 13 88 15 115 2 28 9 91 15 140 7 50 18 149 25 220 7
72 18 150 25 175 6 25 9 56 7 69 -3 14 -1 36 4 49 5 14 11 54 13 91 2 36 9 93
15 126 6 33 8 68 5 77 -3 10 0 27 7 39 12 23 30 166 34 279 1 36 8 78 14 94 7
17 11 62 10 100 0 39 4 85 11 101 6 17 13 62 15 100 2 39 8 90 15 115 6 25 9
65 7 89 -3 25 1 62 9 84 8 22 14 68 14 103 0 34 5 75 11 91 6 15 12 64 14 108
1 44 8 96 14 115 6 19 11 59 11 88 0 30 7 79 16 110 11 36 15 74 11 109 -4 36
-1 69 9 96 8 23 15 71 15 107 0 36 7 85 15 110 9 26 15 72 13 110 -1 36 4 79
11 95 7 17 14 68 15 115 2 47 6 101 10 120 3 19 8 69 10 110 2 41 11 93 19
115 8 22 15 66 16 98 0 38 7 72 20 98 14 27 28 91 41 201 20 153 23 162 55
205 19 24 34 48 34 53 0 5 21 23 46 40 60 42 104 104 104 147 0 107 -146 233
-350 305 -507 177 -1503 268 -2481 228z m1186 -61 c77 -6 149 -15 160 -20 37
-15 -73 -10 -555 22 -16 1 -11 4 15 8 53 8 208 4 380 -10z m33 -123 c102 -12
133 -20 121 -30 -6 -5 -436 11 -543 21 l-91 8 60 6 c112 11 340 8 453 -5z
m-113 -106 c77 -5 160 -13 185 -17 41 -6 36 -8 -50 -15 -56 -4 -122 -4 -160 2
-36 6 -110 12 -165 14 -55 3 -101 5 -103 5 -2 1 0 6 3 11 8 13 111 13 290 0z
m158 -340 c202 -36 -75 -39 -496 -4 -43 3 -75 9 -72 12 21 21 438 15 568 -8z
m-118 -91 c38 -5 6 -6 -90 -2 -82 3 -170 9 -195 13 -58 10 204 0 285 -11z
m-29 -149 c153 -15 175 -22 94 -31 -76 -9 -480 17 -494 31 -13 13 259 13 400
0z m-253 -47 c-7 -2 -19 -2 -25 0 -7 3 -2 5 12 5 14 0 19 -2 13 -5z m-944 -88
c135 -9 247 -18 250 -21 12 -13 -538 23 -574 37 -12 4 0 6 30 3 28 -2 160 -11
294 -19z m-509 -6 c76 -10 180 -46 180 -61 0 -13 -177 -9 -260 6 -89 16 -158
42 -144 56 18 18 89 18 224 -1z m20 -144 c119 -15 189 -31 191 -43 7 -35 9
-70 10 -147 2 -130 5 -122 -51 -135 -74 -18 -246 6 -321 45 -26 14 -27 17 -34
144 -4 71 -4 134 0 140 9 15 69 14 205 -4z m50 -417 c109 -17 182 -37 143 -38
-9 0 -13 -16 -13 -45 0 -42 2 -46 38 -62 l37 -18 -80 -3 c-90 -4 -201 11 -278
37 -52 18 -74 41 -39 41 36 0 46 25 28 65 -9 19 -23 35 -31 35 -8 0 -15 5 -15
10 0 11 12 10 210 -22z m-20 -213 c165 -24 218 -36 195 -45 -16 -6 -19 -14
-17 -46 2 -21 13 -49 23 -60 20 -21 20 -21 -3 -28 -63 -16 -256 9 -337 45
l-44 19 22 21 c14 14 20 27 15 38 -3 9 -7 30 -8 48 -2 29 1 31 24 27 14 -2 72
-11 130 -19z m95 -236 c61 -12 112 -23 114 -25 2 -2 -1 -9 -7 -16 -5 -7 -13
-29 -17 -49 -6 -31 -4 -36 19 -47 45 -20 29 -32 -43 -32 -89 0 -233 25 -290
51 -44 20 -45 22 -24 31 30 14 38 44 19 64 -9 8 -16 25 -16 36 0 20 4 20 68
14 37 -4 117 -16 177 -27z m-85 -209 c148 -24 220 -40 220 -48 0 -4 -9 -18
-20 -32 -29 -37 -25 -54 18 -76 l37 -19 -88 -3 c-91 -3 -157 6 -249 33 -76 22
-88 32 -64 50 17 13 18 19 8 53 -15 50 -15 62 1 62 6 0 68 -9 137 -20z m54
-230 c154 -25 176 -32 169 -59 -3 -11 -14 -23 -24 -26 -30 -10 -22 -28 21 -49
22 -10 37 -23 34 -27 -7 -12 -200 -3 -259 12 -67 16 -135 46 -135 58 0 5 9 13
20 16 11 3 20 10 20 14 0 4 -9 16 -20 26 -11 10 -20 26 -20 37 0 24 35 24 194
-2z m9 -215 c79 -13 153 -28 163 -32 22 -9 25 -34 7 -46 -21 -13 -15 -40 15
-64 l27 -22 -97 -1 c-106 0 -204 19 -273 52 -52 25 -55 33 -20 42 l26 7 -21
26 c-28 36 -26 63 4 63 14 0 90 -11 169 -25z m63 -225 c142 -29 134 -25 121
-65 -8 -29 -7 -38 6 -53 10 -10 17 -22 17 -27 0 -12 -198 3 -263 20 -64 17
-137 52 -137 65 0 5 9 12 21 15 15 5 18 10 10 18 -6 6 -11 22 -11 35 0 25 1
25 69 18 37 -3 113 -15 167 -26z m34 -210 c57 -12 107 -23 109 -26 3 -2 -3
-20 -12 -38 -14 -30 -14 -36 -1 -46 32 -27 14 -33 -88 -27 -93 5 -208 31 -246
55 -7 5 -15 33 -17 62 l-5 53 78 -6 c42 -3 124 -15 182 -27z m-81 -191 c69
-12 141 -26 160 -32 33 -12 34 -14 36 -64 1 -30 -3 -54 -9 -56 -23 -8 -184 13
-246 32 -95 30 -114 45 -106 89 4 30 19 51 35 52 2 0 60 -9 130 -21z m24 -199
c66 -12 134 -27 152 -34 29 -12 31 -17 31 -62 l-1 -49 -80 3 c-89 4 -180 24
-237 53 -40 21 -49 49 -28 90 13 24 16 24 163 -1z m64 -211 c55 -12 106 -25
112 -29 7 -4 14 -25 17 -47 l5 -41 -44 -6 c-120 -18 -339 56 -322 108 3 9 7
23 10 32 7 21 69 16 222 -17z m-46 -180 c68 -12 139 -27 157 -35 31 -13 33
-16 30 -56 -3 -42 -3 -42 -45 -46 -93 -8 -292 49 -313 89 -14 25 4 69 28 69
11 0 75 -9 143 -21z m37 -194 c68 -13 131 -30 140 -37 21 -16 26 -56 11 -74
-23 -28 -201 -8 -285 32 -43 21 -68 56 -59 84 8 27 39 26 193 -5z m-101 -165
c26 -5 89 -17 138 -26 116 -21 125 -26 125 -69 0 -36 1 -35 -57 -38 -45 -2
-144 14 -197 33 -66 23 -97 45 -90 66 16 52 9 49 81 34z m125 -194 c129 -30
150 -40 146 -69 -5 -38 -46 -49 -130 -36 -137 21 -217 64 -203 108 9 28 51 27
187 -3z m1 -171 c115 -23 157 -42 157 -71 0 -36 -79 -43 -188 -19 -102 23
-154 61 -138 100 7 20 29 19 169 -10z m12 -164 c120 -25 145 -36 145 -61 0
-47 -117 -47 -244 0 -60 23 -81 42 -72 65 7 20 60 19 171 -4z m21 -157 c81
-17 134 -38 134 -53 0 -57 -229 -30 -302 36 -10 8 -15 20 -12 24 8 14 95 10
180 -7z m-20 -144 c105 -21 154 -37 154 -50 0 -19 -34 -40 -63 -40 -50 0 -157
29 -194 51 -37 23 -45 59 -14 59 10 0 63 -9 117 -20z m-56 -131 c25 -5 78 -16
119 -24 83 -16 101 -26 81 -50 -18 -22 -98 -19 -173 6 -72 24 -87 35 -87 60 0
22 -1 22 60 8z m108 -158 c89 -19 117 -35 92 -51 -42 -27 -176 -1 -217 42
l-27 28 35 0 c19 0 71 -9 117 -19z m14 -133 c69 -17 88 -25 86 -37 -5 -24
-103 -18 -174 11 -118 47 -64 64 88 26z m-33 -113 c100 -21 148 -42 132 -58
-27 -27 -209 9 -233 46 -20 32 -2 34 101 12z m26 -199 c39 -8 77 -17 85 -20 8
-2 27 -7 42 -10 37 -8 48 -63 24 -113 l-17 -36 -60 7 c-64 6 -150 38 -171 63
-10 12 -9 17 5 24 12 7 14 15 8 32 -4 12 -11 35 -15 50 -6 24 -4 28 11 23 10
-3 50 -12 88 -20z"/>
</g>
</svg>
